Coordinates
version=1
nRows=65
nColumns=12
inDegrees=yes

Units are S.I. units (second, meters, Newtons, ...)
Angles are in degrees

endheader
time	SC_y	SC_z	SC_x	AC_y	AC_z	AC_x	GH_y	GH_z	GH_yy	EL_x	PS_y
       0.0              -52.98          34.75          30.53          63.43         -16.34          14.47          68.76          16.43          46.99          86.28          124.9
   0.04698              -52.97          34.74          30.53          63.43         -16.33          14.47          68.73          16.43          46.96          86.28          124.9
   0.09396              -52.97          34.74          30.53          63.42         -16.33          14.47           68.7          16.42          46.94          86.27          124.9
    0.1409              -52.96          34.74          30.54          63.42         -16.33          14.46          68.67          16.42          46.92          86.26          124.9
    0.1879              -52.95          34.73          30.54          63.41         -16.32          14.46          68.63          16.41          46.89          86.26          124.9
    0.2349              -52.95          34.73          30.55          63.41         -16.32          14.46          68.59          16.41          46.86          86.25          124.8
    0.2819              -52.94          34.73          30.55           63.4         -16.31          14.45          68.55           16.4          46.83          86.24          124.8
    0.3288              -52.93          34.72          30.56           63.4         -16.31          14.45          68.51          16.39           46.8          86.23          124.8
    0.3758              -52.92          34.72          30.56          63.39          -16.3          14.44          68.46          16.38          46.77          86.23          124.8
    0.4228              -52.91          34.71          30.57          63.38          -16.3          14.44          68.41          16.38          46.73          86.22          124.7
    0.4698               -52.9          34.71          30.58          63.37         -16.29          14.43          68.36          16.37          46.69          86.21          124.7
    0.5168              -52.89           34.7          30.58          63.36         -16.28          14.43           68.3          16.36          46.65           86.2          124.7
    0.5637              -52.88           34.7          30.59          63.35         -16.28          14.42          68.24          16.35           46.6          86.18          124.6
    0.6107              -52.87          34.69           30.6          63.34         -16.27          14.41          68.17          16.34          46.55          86.17          124.6
    0.6577              -52.86          34.68          30.61          63.33         -16.26          14.41           68.1          16.32           46.5          86.16          124.6
    0.7047              -52.84          34.67          30.62          63.32         -16.25           14.4          68.02          16.31          46.44          86.14          124.5
    0.7516              -52.83          34.67          30.63          63.31         -16.24          14.39          67.93           16.3          46.38          86.13          124.5
    0.7986              -52.81          34.66          30.64          63.29         -16.23          14.38          67.84          16.28          46.31          86.11          124.4
    0.8456              -52.79          34.65          30.65          63.28         -16.22          14.37          67.74          16.26          46.24          86.09          124.4
    0.8926              -52.77          34.64          30.67          63.26          -16.2          14.36          67.62          16.24          46.16          86.07          124.3
    0.9396              -52.75          34.62          30.68          63.24         -16.19          14.35           67.5          16.22          46.07          86.05          124.2
    0.9865              -52.72          34.61           30.7          63.22         -16.17          14.33          67.37           16.2          45.97          86.02          124.2
     1.034               -52.7           34.6          30.72           63.2         -16.16          14.32          67.22          16.18          45.86          85.99          124.1
      1.08              -52.67          34.58          30.74          63.18         -16.14           14.3          67.05          16.15          45.74          85.96          124.0
     1.127              -52.63          34.56          30.76          63.15         -16.11          14.29          66.87          16.12           45.6          85.93          123.9
     1.174               -52.6          34.54          30.79          63.12         -16.09          14.27          66.66          16.08          45.45          85.89          123.8
     1.221              -52.56          34.52          30.82          63.08         -16.06          14.24          66.43          16.05          45.29          85.85          123.7
     1.268              -52.51          34.49          30.85          63.05         -16.03          14.22          66.17           16.0           45.1           85.8          123.5
     1.315              -52.46          34.46          30.89           63.0          -16.0          14.19          65.88          15.95          44.88          85.75          123.4
     1.362               -52.4          34.43          30.93          62.95         -15.96          14.16          65.55           15.9          44.64          85.68          123.2
     1.409              -52.33          34.39          30.98           62.9         -15.91          14.12          65.17          15.84          44.37          85.61          123.0
     1.456              -52.25          34.35          31.03          62.83         -15.86          14.08          64.74          15.76          44.05          85.53          122.7
     1.503              -52.16           34.3          31.09          62.76          -15.8          14.03          64.24          15.68          43.68          85.44          122.5
      1.55              -52.05          34.24          31.17          62.67         -15.74          13.97          63.65          15.58          43.26          85.33          122.2
     1.597              -51.93          34.18          31.25          62.57         -15.65           13.9          62.97          15.47          42.76           85.2          121.8
     1.644              -51.78           34.1          31.35          62.45         -15.56          13.82          62.17          15.33          42.17          85.05          121.4
     1.691              -51.61           34.0          31.48           62.3         -15.45          13.73          61.21          15.18          41.47          84.87          120.8
     1.738               -51.4          33.89          31.62          62.13         -15.31          13.62          60.06          14.98          40.64          84.66          120.2
     1.785              -51.15          33.75          31.79          61.92         -15.15          13.48          58.68          14.75          39.63           84.4          119.5
     1.832              -50.85          33.59          32.01          61.67         -14.95          13.31          56.99          14.47          38.39          84.09          118.5
     1.879              -50.47          33.38          32.27          61.36          -14.7          13.11           54.9          14.12          36.86           83.7          117.4
     1.926               -50.0          33.12           32.6          60.97          -14.4          12.85          52.29          13.69          34.96          83.21          116.0
     1.973               -49.4           32.8          33.01          60.47         -14.01          12.53          49.01          13.14          32.57           82.6          114.2
      2.02              -48.65          32.39          33.53          59.85         -13.52          12.11          44.83          12.44          29.52          81.82          112.0
     2.067              -47.68          31.86          34.21          59.05         -12.89          11.59          39.49          11.55          25.62          80.83          109.1
     2.114              -46.44          31.18          35.07          58.02         -12.08          10.91          32.64          10.41          20.62          79.55          105.3
     2.161              -44.86          30.32          36.17          56.71         -11.05          10.05          23.88           8.95          14.23          77.92          100.6
     2.208              -42.86          29.23          37.55          55.06         -9.747          8.966          12.88          7.114          6.191          75.86          94.63
     2.255              -40.44          27.91          39.24          53.06         -8.164          7.644        -0.5387          4.877         -3.602          73.36          87.36
     2.302              -37.62          26.37           41.2          50.73          -6.33          6.112         -16.09          2.283         -14.95          70.46          78.93
     2.349              -34.58          24.71          43.31          48.21         -4.345          4.453         -32.93        -0.5246         -27.24          67.33           69.8
     2.396              -31.53          23.05          45.43          45.68         -2.359          2.794         -49.76         -3.333         -39.53          64.19          60.67
     2.443              -28.71          21.51          47.39          43.36        -0.5248          1.262         -65.31         -5.926         -50.89          61.29          52.24
      2.49              -26.29          20.19          49.07          41.35          1.057       -0.06022         -78.73         -8.163         -60.68          58.79          44.97
     2.537              -24.29           19.1          50.46           39.7          2.356         -1.145         -89.74         -9.999         -68.71          56.74           39.0
     2.584              -22.71          18.24          51.56          38.39          3.388         -2.008         -98.49         -11.46         -75.11           55.1          34.25
     2.631              -21.47          17.56          52.42          37.36          4.197         -2.683         -105.3          -12.6         -80.11          53.83          30.54
     2.678               -20.5          17.03          53.09          36.56          4.827         -3.209         -110.7         -13.49         -84.01          52.83          27.64
     2.725              -19.75          16.62          53.62          35.94          5.319          -3.62         -114.9         -14.19         -87.05          52.05          25.38
     2.772              -19.15           16.3          54.03          35.44          5.706         -3.944         -118.1         -14.74         -89.45          51.44           23.6
     2.819              -18.68          16.04          54.36          35.05          6.013           -4.2         -120.7         -15.17         -91.35          50.95          22.19
     2.866               -18.3          15.83          54.62          34.74           6.26         -4.406         -122.8         -15.52         -92.88          50.57          21.06
     2.913               -18.0          15.67          54.83          34.49           6.46         -4.573         -124.5          -15.8         -94.11          50.25          20.14
      2.96              -17.75          15.53          55.01          34.28          6.623          -4.71         -125.9         -16.03         -95.12          49.99          19.39
     3.007              -17.54          15.42          55.15          34.11          6.758         -4.823         -127.1         -16.22         -95.96          49.78          18.76
